<svg class="logo" width="95" height="72" viewBox="0 0 140 106" fill="none" xmlns="http://www.w3.org/2000/svg">
  <g clip-path="url(#clip0)">
    <path fill="#ffffff" d="M2.89 65.64h3.83c1.787 0 3.156-.36 4.108-1.08.951-.742 1.427-1.856 1.427-3.342 0-1.508-.476-2.564-1.428-3.168-.951-.603-2.32-.905-4.108-.905H2.89v8.495zm9.643 12.01l-5.5-9.643H2.89v9.644H0V54.812h7.137c1.16 0 2.228.117 3.203.349.998.209 1.845.568 2.541 1.079a5.15 5.15 0 0 1 1.672 1.984c.394.813.591 1.81.591 2.994 0 1.787-.464 3.215-1.392 4.283-.929 1.067-2.17 1.798-3.725 2.193l5.779 9.957h-3.273zm11.717-20.4h-6.893v-2.437h16.711v2.436h-6.893v20.402H24.25V57.25z"/>
    <path fill="#c73929" d="M38.147 54.812h6.789c1.16 0 2.216.105 3.168.314.974.209 1.799.534 2.472.974a4.442 4.442 0 0 1 1.601 1.741c.395.697.592 1.544.592 2.542a5.28 5.28 0 0 1-.975 3.098c-.65.905-1.648 1.532-2.994 1.88v.14c1.671.255 2.97.835 3.9 1.74.928.906 1.392 2.147 1.392 3.725 0 1.115-.209 2.09-.627 2.925a5.706 5.706 0 0 1-1.775 2.089c-.766.557-1.683.975-2.75 1.253-1.068.279-2.24.418-3.517.418h-7.276V54.813zm6.266 9.749c1.973 0 3.377-.337 4.213-1.01.859-.673 1.288-1.648 1.288-2.925 0-1.253-.453-2.146-1.358-2.68-.882-.557-2.216-.836-4.003-.836h-3.517v7.45h3.377zm.592 10.792c1.973 0 3.505-.36 4.596-1.079 1.09-.743 1.636-1.892 1.636-3.447 0-1.416-.534-2.448-1.601-3.098-1.068-.673-2.611-1.01-4.63-1.01h-3.97v8.634h3.97zm13.609-20.54h2.89V77.65h-2.89V54.812zm9.18 0h5.71c3.527 0 6.208.974 8.041 2.924 1.834 1.95 2.75 4.746 2.75 8.39 0 1.81-.231 3.435-.695 4.874-.465 1.416-1.15 2.623-2.054 3.621-.906.975-2.02 1.73-3.343 2.263-1.323.51-2.843.766-4.56.766h-5.85V54.812zm5.5 20.47c2.67 0 4.666-.8 5.989-2.402 1.346-1.601 2.019-3.853 2.019-6.754 0-2.901-.673-5.117-2.02-6.65-1.322-1.531-3.319-2.297-5.987-2.297h-2.612v18.103h2.611zM101.175 77.65c6.306 0 11.419-5.112 11.419-11.418 0-6.307-5.113-11.42-11.419-11.42-6.307 0-11.42 5.113-11.42 11.42 0 6.306 5.113 11.419 11.42 11.419z"/>
    <path fill="#ffffff" d="M101.175 50.245c6.306 0 11.419-5.113 11.419-11.42 0-6.306-5.113-11.419-11.419-11.419-6.307 0-11.42 5.113-11.42 11.42 0 6.306 5.113 11.419 11.42 11.419zM101.175 105.057c6.306 0 11.419-5.112 11.419-11.42 0-6.306-5.113-11.418-11.419-11.418-6.307 0-11.42 5.112-11.42 11.419s5.113 11.419 11.42 11.419zM128.581 77.65c6.306 0 11.419-5.112 11.419-11.418 0-6.307-5.113-11.42-11.419-11.42-6.307 0-11.42 5.113-11.42 11.42 0 6.306 5.113 11.419 11.42 11.419zM128.581 50.245c6.306 0 11.419-5.113 11.419-11.42 0-6.306-5.113-11.419-11.419-11.419-6.307 0-11.42 5.113-11.42 11.42 0 6.306 5.113 11.419 11.42 11.419zM128.581 105.057c6.306 0 11.419-5.112 11.419-11.42 0-6.306-5.113-11.418-11.419-11.418-6.307 0-11.42 5.112-11.42 11.419s5.113 11.419 11.42 11.419zM73.768 50.245c6.307 0 11.42-5.113 11.42-11.42 0-6.306-5.113-11.419-11.42-11.419-6.306 0-11.419 5.113-11.419 11.42 0 6.306 5.113 11.419 11.42 11.419z"/>
    <path fill="#c73929" d="M73.768 105.057c6.307 0 11.42-5.112 11.42-11.42 0-6.306-5.113-11.418-11.42-11.418-6.306 0-11.419 5.112-11.419 11.419s5.113 11.419 11.42 11.419zM46.362 50.245c6.307 0 11.42-5.113 11.42-11.42 0-6.306-5.113-11.419-11.42-11.419-6.306 0-11.42 5.113-11.42 11.42 0 6.306 5.114 11.419 11.42 11.419z"/>
    <path fill="#ffffff" d="M46.362 105.057c6.307 0 11.42-5.112 11.42-11.42 0-6.306-5.113-11.418-11.42-11.418-6.306 0-11.42 5.112-11.42 11.419s5.114 11.419 11.42 11.419zM101.175 22.838c6.306 0 11.419-5.112 11.419-11.419C112.594 5.113 107.481 0 101.175 0c-6.307 0-11.42 5.113-11.42 11.42 0 6.306 5.113 11.418 11.42 11.418z"/>
    <path fill="#c73929" d="M128.581 22.838c6.306 0 11.419-5.112 11.419-11.419C140 5.113 134.887 0 128.581 0c-6.307 0-11.42 5.113-11.42 11.42 0 6.306 5.113 11.418 11.42 11.418z"/>
    <path fill="#ffffff" d="M73.768 22.838c6.307 0 11.42-5.112 11.42-11.419C85.188 5.113 80.075 0 73.768 0 67.462 0 62.35 5.113 62.35 11.42c0 6.306 5.113 11.418 11.42 11.418zM46.362 22.838c6.307 0 11.42-5.112 11.42-11.419C57.781 5.113 52.668 0 46.361 0c-6.306 0-11.42 5.113-11.42 11.42 0 6.306 5.114 11.418 11.42 11.418z"/>
  </g>
  <defs>
    <clipPath id="clip0">
      <path fill="#ffffff" d="M0 0h140v105.057H0z"/>
    </clipPath>
  </defs>
</svg>